<?xml version="1.0" encoding="utf-8"?>
<!-- Generator: Adobe Illustrator 27.5.0, SVG Export Plug-In . SVG Version: 6.00 Build 0)  -->
<svg version="1.1" xmlns="http://www.w3.org/2000/svg" xmlns:xlink="http://www.w3.org/1999/xlink" x="0px" y="0px"
	 viewBox="0 0 500 500" style="enable-background:new 0 0 500 500;" xml:space="preserve">
<g id="BACKGROUND">
	<rect id="XMLID_1_" style="fill:#00A19A;" width="500" height="500"/>
	<path id="XMLID_49_" style="fill:#007F76;" d="M499.411,346.979h-4.363c-1.333,0-2.414,1.081-2.414,2.415v16.371
		c0,1.333-1.081,2.414-2.414,2.414h-12.846c-1.333,0-2.414-1.081-2.414-2.414v-4.799c0-1.333-1.081-2.414-2.414-2.414h-29.902
		c-1.333,0-2.414-1.081-2.414-2.414v-54.562c0-0.515-0.165-1.017-0.471-1.432l-15.627-21.21c-0.885-1.201-2.635-1.32-3.675-0.251
		l-18.975,19.513c-0.438,0.451-0.684,1.055-0.684,1.683v65.888c0,1.333-1.081,2.414-2.414,2.414h-15.886
		c-1.334,0-2.414-1.081-2.414-2.414v-26.998c0-1.333-1.081-2.414-2.414-2.414h-3.637c-1.333,0-2.414-1.081-2.414-2.414v-29.482
		c0-1.333-1.081-2.414-2.415-2.414l0,0c-1.333,0-2.414-1.081-2.414-2.414v-6.011c0-1.334-1.081-2.415-2.414-2.415h-7.194
		c-1.334,0-2.414,1.081-2.414,2.415v6.011c0,1.333-1.081,2.414-2.414,2.414l0,0c-1.334,0-2.415,1.081-2.415,2.414v29.482
		c0,1.334-1.081,2.414-2.414,2.414h-1.761c-1.333,0-2.414,1.081-2.414,2.414v5.798c0,1.333-1.081,2.414-2.414,2.414h-7.924
		c-1.334,0-2.414-1.081-2.414-2.414v-55.137c0-1.334-1.081-2.414-2.414-2.414h-29.626c-1.333,0-2.414,1.081-2.414,2.414v36.763
		c0,0.665-0.274,1.3-0.758,1.757l-25.358,23.913c-0.484,0.456-0.758,1.092-0.758,1.757v26.95c0,1.333-1.081,2.414-2.414,2.414
		h-16.693c-1.334,0-2.415-1.081-2.415-2.414v-82.025c0-1.333-1.081-2.414-2.414-2.414H216.81c-1.334,0-2.415,1.081-2.415,2.414
		v46.023c0,1.333-1.081,2.414-2.414,2.414h-13.07c-1.333,0-2.414,1.081-2.414,2.415v16.371c0,1.333-1.081,2.414-2.415,2.414h-12.846
		c-1.334,0-2.414-1.081-2.414-2.414v-4.799c0-1.333-1.081-2.414-2.415-2.414h-29.902c-1.333,0-2.415-1.081-2.415-2.414v-54.562
		c0-0.515-0.165-1.017-0.471-1.432l-15.627-21.21c-0.884-1.201-2.635-1.32-3.675-0.251l-18.975,19.513
		c-0.438,0.451-0.683,1.055-0.683,1.683v65.888c0,1.333-1.081,2.414-2.414,2.414H86.358c-1.334,0-2.415-1.081-2.415-2.414v-26.998
		c0-1.333-1.081-2.414-2.414-2.414h-3.637c-1.334,0-2.414-1.081-2.414-2.414v-29.482c0-1.333-1.081-2.414-2.414-2.414l0,0
		c-1.334,0-2.414-1.081-2.414-2.414v-6.011c0-1.334-1.081-2.415-2.415-2.415h-7.194c-1.333,0-2.414,1.081-2.414,2.415v6.011
		c0,1.333-1.081,2.414-2.414,2.414l0,0c-1.333,0-2.414,1.081-2.414,2.414v29.482c0,1.334-1.081,2.414-2.414,2.414h-1.761
		c-1.334,0-2.415,1.081-2.415,2.414v5.798c0,1.333-1.081,2.414-2.414,2.414h-7.924c-1.333,0-2.414-1.081-2.414-2.414v-55.137
		c0-1.334-1.081-2.414-2.414-2.414H2.414c-1.333,0-2.414,1.081-2.414,2.414v208.158C0,498.919,1.081,500,2.414,500h293.723h203.274
		c1.333,0,2.414-1.081,2.414-2.414l0-148.191C501.826,348.06,500.745,346.979,499.411,346.979z"/>
</g>
<g id="OBJECTS">
	
		<ellipse id="XMLID_415_" transform="matrix(0.7071 -0.7071 0.7071 0.7071 71.7422 312.9758)" style="fill:#FFED00;" cx="413.666" cy="69.887" rx="45.554" ry="45.554"/>
	<g id="XMLID_207_">
		<path id="XMLID_414_" style="opacity:0.44;fill:#FFFFFF;" d="M18.087,77h123.448c0,0-6.173-14.721-13.888-15.339
			c-7.715-0.617-9.876,4.212-12.345,3.75c-2.469-0.463-6.481-12.708-16.357-13.325c-9.876-0.617-13.733,8.614-19.134,10.312
			c-5.401,1.697-16.048,0.758-24.381-12.667c-8.333-13.425-24.134,0.824-24.535,11.166C30.277,76.79,6.051,67,6.051,77H18.087z"/>
		<path id="XMLID_413_" style="opacity:0.44;fill:#FFFFFF;" d="M11.783,243h123.448c0,0-6.173-14.572-13.888-15.189
			c-7.715-0.617-9.876,4.287-12.345,3.824c-2.469-0.463-6.481-12.67-16.357-13.287c-9.876-0.617-13.733,8.633-19.134,10.33
			c-5.401,1.697-16.048,0.767-24.381-12.658c-8.333-13.425-24.134,0.68-24.535,11.021C23.974,242.935-0.253,234-0.253,243H11.783z"
			/>
		<path id="XMLID_307_" style="opacity:0.44;fill:#FFFFFF;" d="M290.219,139h123.448c0,0-6.172-14.942-13.888-15.56
			c-7.715-0.617-9.876,4.102-12.345,3.639c-2.469-0.463-6.481-12.763-16.357-13.38c-9.876-0.617-13.733,8.587-19.134,10.284
			c-5.401,1.697-16.048,0.744-24.381-12.681c-8.333-13.425-24.134,1.039-24.535,11.38C302.409,138.576,278.182,129,278.182,139
			H290.219z"/>
		<path id="XMLID_416_" style="opacity:0.44;fill:#FFFFFF;" d="M376.552,49H500c0,0-6.173-14.946-13.888-15.563
			c-7.715-0.617-9.876,4.1-12.345,3.637c-2.469-0.463-6.481-12.764-16.357-13.381c-9.876-0.617-13.733,8.586-19.134,10.284
			c-5.401,1.697-16.048,0.744-24.381-12.681c-8.333-13.425-24.134,1.042-24.535,11.383C388.743,48.573,364.516,39,364.516,49
			H376.552z"/>
		<path id="XMLID_596_" style="opacity:0.44;fill:#FFFFFF;" d="M321.073,253h123.448c0,0-6.172-14.609-13.888-15.226
			c-7.715-0.617-9.876,4.269-12.345,3.806c-2.469-0.463-6.481-12.679-16.357-13.297c-9.876-0.617-13.733,8.628-19.134,10.326
			c-5.401,1.697-16.048,0.765-24.381-12.66c-8.333-13.425-24.134,0.715-24.535,11.057C333.264,252.9,309.037,244,309.037,253
			H321.073z"/>
	</g>
	<g id="XMLID_47_">
		<g id="XMLID_92_">
			<g id="XMLID_108_">
				<polyline id="XMLID_111_" style="fill:none;stroke:#000000;stroke-width:2;stroke-miterlimit:10;" points="329.267,94.883 
					311.711,94.883 311.711,78.438 				"/>
				
					<line id="XMLID_109_" style="fill:none;stroke:#000000;stroke-width:2;stroke-miterlimit:10;" x1="311.711" y1="77.882" x2="329.267" y2="94.883"/>
			</g>
			<g id="XMLID_105_">
				
					<rect id="XMLID_107_" x="294.711" y="77.882" transform="matrix(-1.836970e-16 1 -1 -1.836970e-16 389.5933 -216.273)" style="fill:none;stroke:#000000;stroke-width:2;stroke-miterlimit:10;" width="16.445" height="17.556"/>
				
					<line id="XMLID_106_" style="fill:none;stroke:#000000;stroke-width:2;stroke-miterlimit:10;" x1="295.294" y1="79.577" x2="311.711" y2="94.883"/>
			</g>
			<g id="XMLID_102_">
				
					<rect id="XMLID_104_" x="277.155" y="77.882" transform="matrix(-1.836970e-16 1 -1 -1.836970e-16 372.0372 -198.7169)" style="fill:none;stroke:#000000;stroke-width:2;stroke-miterlimit:10;" width="16.445" height="17.556"/>
				
					<line id="XMLID_103_" style="fill:none;stroke:#000000;stroke-width:2;stroke-miterlimit:10;" x1="277.738" y1="79.577" x2="294.155" y2="94.883"/>
			</g>
			<g id="XMLID_99_">
				
					<rect id="XMLID_101_" x="259.599" y="77.882" transform="matrix(-1.836970e-16 1 -1 -1.836970e-16 354.4812 -181.1609)" style="fill:none;stroke:#000000;stroke-width:2;stroke-miterlimit:10;" width="16.445" height="17.556"/>
				
					<line id="XMLID_100_" style="fill:none;stroke:#000000;stroke-width:2;stroke-miterlimit:10;" x1="260.182" y1="79.577" x2="276.599" y2="94.883"/>
			</g>
			<g id="XMLID_96_">
				
					<rect id="XMLID_98_" x="242.042" y="77.882" transform="matrix(-1.836970e-16 1 -1 -1.836970e-16 336.9251 -163.6048)" style="fill:none;stroke:#000000;stroke-width:2;stroke-miterlimit:10;" width="16.445" height="17.556"/>
				
					<line id="XMLID_97_" style="fill:none;stroke:#000000;stroke-width:2;stroke-miterlimit:10;" x1="242.626" y1="79.577" x2="259.043" y2="94.883"/>
			</g>
			<g id="XMLID_93_">
				
					<rect id="XMLID_95_" x="224.486" y="77.882" transform="matrix(-1.836970e-16 1 -1 -1.836970e-16 319.369 -146.0487)" style="fill:none;stroke:#000000;stroke-width:2;stroke-miterlimit:10;" width="16.445" height="17.556"/>
				
					<line id="XMLID_94_" style="fill:none;stroke:#000000;stroke-width:2;stroke-miterlimit:10;" x1="225.07" y1="79.577" x2="241.487" y2="94.883"/>
			</g>
		</g>
		<g id="XMLID_300_">
			<g id="XMLID_26_">
				<g id="XMLID_14_">
					
						<rect id="XMLID_13_" x="171.263" y="60.326" style="fill:none;stroke:#000000;stroke-width:2;stroke-miterlimit:10;" width="16.445" height="17.556"/>
					
						<line id="XMLID_24_" style="fill:none;stroke:#000000;stroke-width:2;stroke-miterlimit:10;" x1="172.402" y1="76.743" x2="187.708" y2="60.326"/>
				</g>
				<g id="XMLID_27_">
					
						<rect id="XMLID_29_" x="171.263" y="77.882" style="fill:none;stroke:#000000;stroke-width:2;stroke-miterlimit:10;" width="16.445" height="17.556"/>
					
						<line id="XMLID_28_" style="fill:none;stroke:#000000;stroke-width:2;stroke-miterlimit:10;" x1="172.402" y1="94.299" x2="187.708" y2="77.882"/>
				</g>
				<g id="XMLID_30_">
					
						<rect id="XMLID_46_" x="171.263" y="95.438" style="fill:none;stroke:#000000;stroke-width:2;stroke-miterlimit:10;" width="16.445" height="17.556"/>
					
						<line id="XMLID_45_" style="fill:none;stroke:#000000;stroke-width:2;stroke-miterlimit:10;" x1="172.402" y1="111.855" x2="187.708" y2="95.438"/>
				</g>
				<g id="XMLID_48_">
					
						<rect id="XMLID_55_" x="171.263" y="112.994" style="fill:none;stroke:#000000;stroke-width:2;stroke-miterlimit:10;" width="16.445" height="17.556"/>
					
						<line id="XMLID_54_" style="fill:none;stroke:#000000;stroke-width:2;stroke-miterlimit:10;" x1="172.402" y1="129.411" x2="187.708" y2="112.994"/>
				</g>
				<g id="XMLID_56_">
					
						<rect id="XMLID_59_" x="171.263" y="130.55" style="fill:none;stroke:#000000;stroke-width:2;stroke-miterlimit:10;" width="16.445" height="17.556"/>
					
						<line id="XMLID_57_" style="fill:none;stroke:#000000;stroke-width:2;stroke-miterlimit:10;" x1="172.402" y1="146.967" x2="187.708" y2="130.55"/>
				</g>
				<g id="XMLID_60_">
					
						<rect id="XMLID_63_" x="171.263" y="148.106" style="fill:none;stroke:#000000;stroke-width:2;stroke-miterlimit:10;" width="16.445" height="17.556"/>
					
						<line id="XMLID_61_" style="fill:none;stroke:#000000;stroke-width:2;stroke-miterlimit:10;" x1="172.402" y1="164.523" x2="187.708" y2="148.106"/>
				</g>
			</g>
			<g id="XMLID_66_">
				<g id="XMLID_89_">
					
						<rect id="XMLID_91_" x="206.93" y="77.882" transform="matrix(-1.836970e-16 1 -1 -1.836970e-16 301.813 -128.4927)" style="fill:none;stroke:#000000;stroke-width:2;stroke-miterlimit:10;" width="16.445" height="17.556"/>
					
						<line id="XMLID_90_" style="fill:none;stroke:#000000;stroke-width:2;stroke-miterlimit:10;" x1="207.514" y1="79.577" x2="223.931" y2="94.883"/>
				</g>
				<g id="XMLID_86_">
					
						<rect id="XMLID_88_" x="189.374" y="77.882" transform="matrix(-1.836970e-16 1 -1 -1.836970e-16 284.257 -110.9366)" style="fill:none;stroke:#000000;stroke-width:2;stroke-miterlimit:10;" width="16.445" height="17.556"/>
					
						<line id="XMLID_87_" style="fill:none;stroke:#000000;stroke-width:2;stroke-miterlimit:10;" x1="189.958" y1="79.577" x2="206.375" y2="94.883"/>
				</g>
				<g id="XMLID_83_">
					
						<rect id="XMLID_85_" x="171.818" y="77.882" transform="matrix(-1.836970e-16 1 -1 -1.836970e-16 266.7009 -93.3806)" style="fill:none;stroke:#000000;stroke-width:2;stroke-miterlimit:10;" width="16.445" height="17.556"/>
					
						<line id="XMLID_84_" style="fill:none;stroke:#000000;stroke-width:2;stroke-miterlimit:10;" x1="172.402" y1="79.577" x2="188.819" y2="94.883"/>
				</g>
				<g id="XMLID_80_">
					
						<rect id="XMLID_82_" x="154.262" y="77.882" transform="matrix(-1.836970e-16 1 -1 -1.836970e-16 249.1448 -75.8245)" style="fill:none;stroke:#000000;stroke-width:2;stroke-miterlimit:10;" width="16.445" height="17.556"/>
					
						<line id="XMLID_81_" style="fill:none;stroke:#000000;stroke-width:2;stroke-miterlimit:10;" x1="154.845" y1="79.577" x2="171.263" y2="94.883"/>
				</g>
				<g id="XMLID_77_">
					
						<rect id="XMLID_79_" x="136.706" y="77.882" transform="matrix(-1.836970e-16 1 -1 -1.836970e-16 231.5887 -58.2684)" style="fill:none;stroke:#000000;stroke-width:2;stroke-miterlimit:10;" width="16.445" height="17.556"/>
					
						<line id="XMLID_78_" style="fill:none;stroke:#000000;stroke-width:2;stroke-miterlimit:10;" x1="137.289" y1="79.577" x2="153.707" y2="94.883"/>
				</g>
				<g id="XMLID_67_">
					
						<rect id="XMLID_69_" x="119.15" y="77.882" transform="matrix(-1.836970e-16 1 -1 -1.836970e-16 214.0327 -40.7124)" style="fill:none;stroke:#000000;stroke-width:2;stroke-miterlimit:10;" width="16.445" height="17.556"/>
					
						<line id="XMLID_68_" style="fill:none;stroke:#000000;stroke-width:2;stroke-miterlimit:10;" x1="119.733" y1="79.577" x2="136.151" y2="94.883"/>
				</g>
			</g>
			<g id="XMLID_256_">
				<g id="XMLID_282_">
					<path id="XMLID_299_" style="fill:#EDEDED;" d="M432.993,449.512h-327.83c-6.6,0-12-5.4-12-12V204.538c0-6.6,5.4-12,12-12
						h327.83c6.6,0,12,5.4,12,12v232.974C444.993,444.112,439.593,449.512,432.993,449.512z"/>
					<path id="XMLID_298_" style="fill:#DADADA;" d="M444.993,216.959H93.163v-12.631c0-6.512,5.279-11.79,11.79-11.79h328.249
						c6.512,0,11.79,5.279,11.79,11.79V216.959z"/>
					<g id="XMLID_288_">
						<path id="XMLID_295_" style="fill:#FF6364;" d="M114.982,202.714c0,2.529-2.05,4.579-4.579,4.579
							c-2.529,0-4.579-2.05-4.579-4.579c0-2.529,2.05-4.579,4.579-4.579C112.932,198.135,114.982,200.185,114.982,202.714z"/>
						<path id="XMLID_292_" style="fill:#F9D43B;" d="M131.517,202.714c0,2.529-2.05,4.579-4.579,4.579
							c-2.529,0-4.579-2.05-4.579-4.579c0-2.529,2.05-4.579,4.579-4.579C129.467,198.135,131.517,200.185,131.517,202.714z"/>
						<path id="XMLID_289_" style="fill:#55E271;" d="M148.052,202.714c0,2.529-2.05,4.579-4.579,4.579s-4.579-2.05-4.579-4.579
							c0-2.529,2.05-4.579,4.579-4.579S148.052,200.185,148.052,202.714z"/>
					</g>
					<path id="XMLID_287_" style="fill:#B2B2B2;" d="M93.163,212.47h68.903l8.036-9.703c1.382-1.669,3.436-2.635,5.603-2.635h78.58
						c2.269,0,4.408,1.059,5.784,2.862l7.229,9.475h177.696v21.317H93.163V212.47z"/>
					<g id="XMLID_284_" style="opacity:0.41;">
						
							<rect id="XMLID_286_" x="254.797" y="205.163" transform="matrix(0.7643 0.6449 -0.6449 0.7643 194.6014 -115.6592)" style="fill:#575756;" width="1.407" height="6.37"/>
						
							<rect id="XMLID_285_" x="254.797" y="205.163" transform="matrix(0.7419 -0.6705 0.6705 0.7419 -73.7544 225.0981)" style="fill:#575756;" width="1.407" height="6.37"/>
					</g>
					<path id="XMLID_283_" style="fill:#FFFFFF;" d="M424.339,228.609H113.818c-0.962,0-1.75-0.788-1.75-1.75v-7.132
						c0-0.962,0.788-1.75,1.75-1.75h310.521c0.962,0,1.75,0.788,1.75,1.75v7.132C426.089,227.822,425.301,228.609,424.339,228.609z"
						/>
				</g>
				<g id="XMLID_257_">
					<path id="XMLID_281_" style="fill:#F6F6F6;" d="M415.753,431.76H87.924c-6.6,0-12-5.4-12-12V186.787c0-6.6,5.4-12,12-12h327.83
						c6.6,0,12,5.4,12,12V419.76C427.753,426.361,422.353,431.76,415.753,431.76z"/>
					<path id="XMLID_280_" style="fill:#EDEDED;" d="M427.753,199.208H75.924v-12.631c0-6.512,5.279-11.79,11.79-11.79h328.249
						c6.512,0,11.79,5.279,11.79,11.79V199.208z"/>
					<g id="XMLID_266_">
						<path id="XMLID_277_" style="fill:#FF6364;" d="M97.742,184.962c0,2.529-2.05,4.579-4.579,4.579s-4.579-2.05-4.579-4.579
							s2.05-4.579,4.579-4.579S97.742,182.433,97.742,184.962z"/>
						<path id="XMLID_274_" style="fill:#F9D43B;" d="M114.277,184.962c0,2.529-2.05,4.579-4.579,4.579s-4.579-2.05-4.579-4.579
							s2.05-4.579,4.579-4.579S114.277,182.433,114.277,184.962z"/>
						<path id="XMLID_267_" style="fill:#55E271;" d="M130.813,184.962c0,2.529-2.05,4.579-4.579,4.579
							c-2.529,0-4.579-2.05-4.579-4.579s2.05-4.579,4.579-4.579C128.762,180.383,130.813,182.433,130.813,184.962z"/>
					</g>
					<path id="XMLID_265_" style="fill:#C6C6C6;" d="M75.924,194.719h68.903l8.036-9.703c1.382-1.669,3.436-2.635,5.603-2.635h78.58
						c2.269,0,4.408,1.059,5.784,2.862l7.229,9.475h177.696v21.317H75.924V194.719z"/>
					<g id="XMLID_259_" style="opacity:0.41;">
						
							<rect id="XMLID_264_" x="237.557" y="187.412" transform="matrix(0.7642 0.645 -0.645 0.7642 179.1036 -108.7288)" style="fill:#575756;" width="1.407" height="6.37"/>
						
							<rect id="XMLID_262_" x="237.557" y="187.412" transform="matrix(0.7419 -0.6706 0.6706 0.7419 -66.3007 208.9702)" style="fill:#575756;" width="1.407" height="6.37"/>
					</g>
					<path id="XMLID_258_" style="fill:#FFFFFF;" d="M407.099,210.858H96.578c-0.963,0-1.75-0.788-1.75-1.75v-7.133
						c0-0.962,0.787-1.75,1.75-1.75h310.521c0.962,0,1.75,0.788,1.75,1.75v7.133C408.849,210.07,408.061,210.858,407.099,210.858z"
						/>
				</g>
				<g id="XMLID_15_">
					<path id="XMLID_2_" style="fill:#FFFFFF;" d="M398.514,413.013H70.684c-6.6,0-12-5.4-12-12V168.039c0-6.6,5.4-12,12-12h327.83
						c6.6,0,12,5.4,12,12v232.974C410.514,407.613,405.114,413.013,398.514,413.013z"/>
					<path id="XMLID_3_" style="fill:#EDEDED;" d="M410.514,180.46H58.684v-12.631c0-6.511,5.279-11.79,11.79-11.79h328.249
						c6.512,0,11.79,5.279,11.79,11.79V180.46z"/>
					<g id="XMLID_5_">
						<path id="XMLID_4_" style="fill:#FF6364;" d="M80.503,166.214c0,2.529-2.05,4.579-4.579,4.579s-4.579-2.05-4.579-4.579
							s2.05-4.579,4.579-4.579S80.503,163.686,80.503,166.214z"/>
						<path id="XMLID_6_" style="fill:#F9D43B;" d="M97.038,166.214c0,2.529-2.05,4.579-4.579,4.579
							c-2.529,0-4.579-2.05-4.579-4.579s2.05-4.579,4.579-4.579C94.988,161.635,97.038,163.686,97.038,166.214z"/>
						<path id="XMLID_7_" style="fill:#55E271;" d="M113.573,166.214c0,2.529-2.05,4.579-4.579,4.579
							c-2.529,0-4.579-2.05-4.579-4.579s2.05-4.579,4.579-4.579C111.523,161.635,113.573,163.686,113.573,166.214z"/>
					</g>
					<path id="XMLID_8_" style="fill:#C6C6C6;" d="M58.684,175.971h68.903l8.036-9.703c1.382-1.669,3.436-2.635,5.603-2.635h78.58
						c2.269,0,4.408,1.059,5.784,2.863l7.229,9.475h177.696v21.317H58.684V175.971z"/>
					<g id="XMLID_10_" style="opacity:0.41;">
						
							<rect id="XMLID_9_" x="220.318" y="168.664" transform="matrix(0.7642 0.645 -0.645 0.7642 162.9465 -102.0302)" style="fill:#575756;" width="1.407" height="6.37"/>
						
							<rect id="XMLID_11_" x="220.318" y="168.664" transform="matrix(0.7419 -0.6705 0.6705 0.7419 -58.1804 192.557)" style="fill:#575756;" width="1.407" height="6.37"/>
					</g>
					<path id="XMLID_12_" style="fill:#FFFFFF;" d="M389.859,192.11H79.339c-0.963,0-1.75-0.788-1.75-1.75v-7.132
						c0-0.963,0.787-1.75,1.75-1.75h310.521c0.963,0,1.75,0.787,1.75,1.75v7.132C391.609,191.323,390.822,192.11,389.859,192.11z"/>
				</g>
			</g>
			<ellipse id="XMLID_44_" style="fill:#C6C6C6;" cx="214.126" cy="380.298" rx="121.446" ry="15.381"/>
			<g id="XMLID_260_">
				<g id="XMLID_225_">
					<polygon id="XMLID_224_" style="fill:#B17F4A;" points="212.64,379.368 223.083,379.368 242.296,269.446 231.852,269.446 					
						"/>
					<path id="XMLID_212_" style="fill:#CA9E67;" d="M246.755,379.368h6.397c1.199,0,2.132-1.043,1.998-2.235l-11.865-105.9
						c-0.114-1.018-0.975-1.787-1.999-1.787h-6.397c-1.199,0-2.132,1.043-1.998,2.235l11.865,105.9
						C244.87,378.598,245.731,379.368,246.755,379.368z"/>
					<path id="XMLID_223_" style="opacity:0.28;fill:#FFFFFF;" d="M244.193,298.114L244.193,298.114
						c0.946-0.101,1.637-0.957,1.536-1.903l-1.85-17.366c-0.101-0.945-0.957-1.637-1.902-1.535l0,0
						c-0.945,0.101-1.637,0.957-1.536,1.903l1.85,17.366C242.391,297.524,243.247,298.215,244.193,298.114z"/>
					<path id="XMLID_226_" style="opacity:0.28;fill:#FFFFFF;" d="M246.847,323.596L246.847,323.596
						c0.945-0.101,1.637-0.957,1.536-1.903l-1.85-17.366c-0.101-0.945-0.957-1.637-1.902-1.535l0,0
						c-0.945,0.101-1.637,0.957-1.536,1.903l1.85,17.366C245.045,323.006,245.901,323.697,246.847,323.596z"/>
					<path id="XMLID_228_" style="opacity:0.28;fill:#FFFFFF;" d="M253.842,379.359l0.026-0.003c0.938-0.1,1.624-0.95,1.524-1.888
						l-1.853-17.392c-0.1-0.938-0.95-1.624-1.888-1.524l-0.026,0.003c-0.938,0.1-1.624,0.95-1.524,1.888l1.853,17.392
						C252.054,378.773,252.903,379.459,253.842,379.359z"/>
				</g>
				<g id="XMLID_261_">
					<path id="XMLID_273_" style="fill:#B17F4A;" d="M113.679,379.368h4.609c1.396,0,2.591-1.004,2.831-2.379l18.208-104.173
						c0.307-1.759-1.046-3.369-2.831-3.369h-4.609c-1.396,0-2.591,1.004-2.831,2.379l-18.208,104.173
						C110.541,377.757,111.894,379.368,113.679,379.368z"/>
					<path id="XMLID_272_" style="fill:#CA9E67;" d="M138.952,379.368h6.43c1.19,0,2.115-1.035,1.982-2.217l-11.869-105.932
						c-0.113-1.009-0.966-1.772-1.982-1.772h-6.43c-1.19,0-2.115,1.034-1.982,2.217l11.869,105.932
						C137.082,378.604,137.936,379.368,138.952,379.368z"/>
					<path id="XMLID_271_" style="opacity:0.28;fill:#FFFFFF;" d="M136.404,298.114L136.404,298.114
						c0.946-0.101,1.637-0.957,1.536-1.903l-1.85-17.366c-0.101-0.945-0.957-1.637-1.902-1.535l0,0
						c-0.945,0.101-1.637,0.957-1.536,1.903l1.85,17.366C134.603,297.524,135.459,298.215,136.404,298.114z"/>
					<path id="XMLID_269_" style="opacity:0.28;fill:#FFFFFF;" d="M139.058,323.596L139.058,323.596
						c0.945-0.101,1.637-0.957,1.536-1.903l-1.85-17.366c-0.101-0.945-0.957-1.637-1.902-1.535l0,0
						c-0.945,0.101-1.637,0.957-1.536,1.903l1.85,17.366C137.257,323.006,138.113,323.697,139.058,323.596z"/>
					<path id="XMLID_263_" style="opacity:0.28;fill:#FFFFFF;" d="M145.801,379.386l0.53-0.057c0.8-0.085,1.384-0.809,1.299-1.609
						l-1.907-17.896c-0.085-0.8-0.809-1.384-1.609-1.299l-0.53,0.056c-0.8,0.085-1.384,0.809-1.299,1.609l1.907,17.896
						C144.277,378.887,145.001,379.471,145.801,379.386z"/>
				</g>
				<g id="XMLID_235_">
					<g id="XMLID_206_">
						<path id="XMLID_43_" style="fill:#FFED00;" d="M125.949,282.588h116.686c2.268,0,4.106-1.838,4.106-4.106v-7.501
							c0-2.268-1.838-4.106-4.106-4.106H125.949c-2.268,0-4.106,1.838-4.106,4.106v7.501
							C121.844,280.75,123.682,282.588,125.949,282.588z"/>
						<polygon id="XMLID_197_" points="237.172,282.588 243.215,282.588 240.194,266.875 234.15,266.875 						"/>
						<polygon id="XMLID_208_" points="225.085,282.588 231.129,282.588 228.107,266.875 222.064,266.875 						"/>
						<polygon id="XMLID_209_" points="212.998,282.588 219.042,282.588 216.02,266.875 209.977,266.875 						"/>
						<polygon id="XMLID_210_" points="200.912,282.588 206.955,282.588 203.933,266.875 197.89,266.875 						"/>
						<polygon id="XMLID_222_" points="188.825,282.588 194.868,282.588 191.846,266.875 185.803,266.875 						"/>
						<polygon id="XMLID_230_" points="176.738,282.588 182.781,282.588 179.76,266.875 173.716,266.875 						"/>
						<polygon id="XMLID_231_" points="164.651,282.588 170.694,282.588 167.673,266.875 161.629,266.875 						"/>
						<polygon id="XMLID_232_" points="152.564,282.588 158.608,282.588 155.586,266.875 149.543,266.875 						"/>
						<polygon id="XMLID_233_" points="140.477,282.588 146.521,282.588 143.499,266.875 137.456,266.875 						"/>
						<polygon id="XMLID_234_" points="128.391,282.588 134.434,282.588 131.412,266.875 125.369,266.875 						"/>
					</g>
				</g>
				<g id="XMLID_239_">
					<g id="XMLID_243_">
						<path id="XMLID_254_" style="fill:#FFED00;" d="M131.167,320.879h115.669c1.796,0,3.252-1.456,3.252-3.252v-8.866
							c0-1.796-1.456-3.252-3.252-3.252H131.167c-1.796,0-3.253,1.456-3.253,3.252v8.865
							C127.914,319.423,129.371,320.879,131.167,320.879z"/>
						<polygon id="XMLID_253_" points="240.728,320.879 246.639,320.879 243.684,305.509 237.772,305.509 						"/>
						<polygon id="XMLID_252_" points="228.905,320.879 234.816,320.879 231.86,305.509 225.949,305.509 						"/>
						<polygon id="XMLID_251_" points="217.081,320.879 222.993,320.879 220.037,305.509 214.125,305.509 						"/>
						<polygon id="XMLID_250_" points="205.258,320.879 211.17,320.879 208.214,305.509 202.302,305.509 						"/>
						<polygon id="XMLID_249_" points="193.435,320.879 199.346,320.879 196.391,305.509 190.479,305.509 						"/>
						<polygon id="XMLID_248_" points="181.612,320.879 187.523,320.879 184.567,305.509 178.656,305.509 						"/>
						<polygon id="XMLID_247_" points="169.788,320.879 175.7,320.879 172.744,305.509 166.833,305.509 						"/>
						<polygon id="XMLID_246_" points="157.965,320.879 163.877,320.879 160.921,305.509 155.009,305.509 						"/>
						<polygon id="XMLID_245_" points="146.142,320.879 152.054,320.879 149.098,305.509 143.186,305.509 						"/>
						<polygon id="XMLID_244_" points="134.319,320.879 140.23,320.879 137.274,305.509 131.363,305.509 						"/>
					</g>
				</g>
			</g>
			<g id="XMLID_39_">
				<g id="XMLID_58_">
					<g id="XMLID_62_">
						<path id="XMLID_71_" style="fill:#E94E1B;" d="M195.799,281.665l-31.32,100.772h34.324h34.323l-31.32-100.772
							C200.889,278.716,196.715,278.716,195.799,281.665z"/>
						<path id="XMLID_70_" style="fill:#F39200;" d="M239.028,385.784h-80.451c-0.92,0-1.673-0.753-1.673-1.673l0,0
							c0-0.92,0.753-1.673,1.673-1.673h80.451c0.92,0,1.673,0.753,1.673,1.673l0,0C240.701,385.031,239.948,385.784,239.028,385.784
							z"/>
					</g>
					<path id="XMLID_72_" style="opacity:0.37;fill:#FFFFFF;" d="M186.594,323.998L186.594,323.998
						c-2.026-0.636-3.163-2.813-2.528-4.839l6.382-20.344c0.636-2.026,2.813-3.164,4.839-2.528l0,0
						c2.026,0.636,3.163,2.813,2.528,4.839l-6.382,20.344C190.798,323.496,188.62,324.634,186.594,323.998z"/>
					<path id="XMLID_73_" style="opacity:0.37;fill:#FFFFFF;" d="M180.486,344.035L180.486,344.035
						c-2.029-0.626-3.176-2.799-2.55-4.827l2.957-9.58c0.626-2.029,2.799-3.176,4.827-2.55l0,0c2.029,0.626,3.176,2.799,2.55,4.828
						l-2.957,9.58C184.687,343.513,182.515,344.661,180.486,344.035z"/>
					<path id="XMLID_74_" style="opacity:0.37;fill:#FFFFFF;" d="M176.928,384.11h-17.514c-0.46,0-0.837-0.377-0.837-0.837l0,0
						c0-0.46,0.376-0.837,0.837-0.837h17.514c0.46,0,0.837,0.376,0.837,0.837l0,0C177.765,383.734,177.388,384.11,176.928,384.11z"
						/>
					<path id="XMLID_75_" style="opacity:0.37;fill:#FFFFFF;" d="M192.512,384.11h-9.485c-0.46,0-0.837-0.377-0.837-0.837l0,0
						c0-0.46,0.376-0.837,0.837-0.837h9.485c0.46,0,0.837,0.376,0.837,0.837l0,0C193.349,383.734,192.972,384.11,192.512,384.11z"/>
					<polygon id="XMLID_76_" style="opacity:0.52;fill:#E94E1B;" points="201.85,281.807 215.102,382.437 233.126,382.437 					"/>
				</g>
				<g id="XMLID_38_">
					<g id="XMLID_35_">
						<path id="XMLID_34_" style="fill:#E94E1B;" d="M324.151,365.198l-37.994-31.784l-5.489,24.096l-5.489,24.096l48.012-12.192
							C324.595,369.058,325.263,366.128,324.151,365.198z"/>
						<path id="XMLID_19_" style="fill:#F9B233;" d="M267.274,389.498l-31.424-7.158c-4.295-0.978-7.008-5.293-6.03-9.588
							l11.754-51.597c0.978-4.295,5.293-7.008,9.587-6.03l31.424,7.158c4.295,0.978,7.008,5.293,6.03,9.587l-11.753,51.597
							C275.883,387.763,271.568,390.476,267.274,389.498z"/>
						<path id="XMLID_16_" style="fill:#F39200;" d="M265.271,389.042l-32.626-7.432c-4.295-0.978-7.008-5.293-6.03-9.587
							l11.754-51.597c0.978-4.295,5.293-7.008,9.588-6.03l32.625,7.432c4.295,0.978,7.008,5.293,6.03,9.587l-11.754,51.597
							C273.88,387.307,269.566,390.02,265.271,389.042z"/>
						
							<ellipse id="XMLID_17_" transform="matrix(0.2221 -0.975 0.975 0.2221 -143.3143 523.8062)" style="fill:#E94E1B;" cx="256.614" cy="351.719" rx="28.923" ry="20.759"/>
						<g id="XMLID_18_">
							<defs>
								
									<ellipse id="XMLID_32_" transform="matrix(0.2221 -0.975 0.975 0.2221 -143.3143 523.8062)" cx="256.614" cy="351.719" rx="28.923" ry="20.759"/>
							</defs>
							<clipPath id="XMLID_00000139273310595323673030000016992533550702123694_">
								<use xlink:href="#XMLID_32_"  style="overflow:visible;"/>
							</clipPath>
							
								<ellipse id="XMLID_20_" transform="matrix(0.2221 -0.975 0.975 0.2221 -133.5198 544.1113)" style="opacity:0.52;clip-path:url(#XMLID_00000139273310595323673030000016992533550702123694_);fill:#E94E1B;" cx="274.236" cy="355.733" rx="26.074" ry="18.715"/>
						</g>
					</g>
					<path id="XMLID_36_" style="opacity:0.37;fill:#FFFFFF;" d="M291.749,343.242L291.749,343.242
						c0.705-0.913,2.029-1.084,2.942-0.379l9.171,7.078c0.913,0.705,1.084,2.029,0.379,2.942l0,0
						c-0.705,0.913-2.029,1.084-2.942,0.379l-9.171-7.078C291.215,345.479,291.044,344.155,291.749,343.242z"/>
				</g>
				<polygon id="XMLID_37_" style="opacity:0.52;fill:#E94E1B;" points="323.81,369.051 280.35,368.152 277.285,381.607 				"/>
			</g>
			<polygon id="XMLID_65_" points="169.964,59.209 169.964,45.865 177.463,33.01 181.46,33.01 189.059,44.85 189.059,59.209 			"/>
			<rect id="XMLID_110_" x="118.594" y="94.883" width="17.556" height="13.305"/>
			<path id="XMLID_112_" style="fill:none;stroke:#000000;stroke-miterlimit:10;" d="M122.483,77.882l55.42-43.895
				c0.769-0.609,1.794-0.786,2.722-0.47l129.019,44.366"/>
			
				<line id="XMLID_114_" style="fill:none;stroke:#000000;stroke-miterlimit:10;" x1="329.716" y1="96.309" x2="329.716" y2="204.189"/>
			<path id="XMLID_113_" d="M330.167,125.854L330.167,125.854c-4.95,0-8.963-4.013-8.963-8.963V93.935h8.963V125.854z"/>
			<g id="XMLID_4833_">
				<path id="XMLID_4834_" style="fill:#706F6F;" d="M329.716,220.337c2.865,0,5.196-2.331,5.196-5.196
					c0-0.704-0.571-1.275-1.275-1.275s-1.275,0.571-1.275,1.275c0,1.459-1.187,2.646-2.646,2.646c-1.459,0-2.646-1.187-2.646-2.646
					s1.187-2.646,2.646-2.646c0.704,0,1.275-0.571,1.275-1.275v-6.4c0-0.704-0.571-1.275-1.275-1.275s-1.275,0.571-1.275,1.275
					v5.283c-2.251,0.57-3.921,2.613-3.921,5.038C324.52,218.006,326.851,220.337,329.716,220.337z"/>
			</g>
			
				<line id="XMLID_116_" style="fill:none;stroke:#000000;stroke-miterlimit:10;" x1="277.855" y1="250.498" x2="331.854" y2="216.693"/>
			
				<line id="XMLID_117_" style="fill:none;stroke:#000000;stroke-miterlimit:10;" x1="385.048" y1="249.145" x2="334.876" y2="216.693"/>
			<path id="XMLID_115_" style="fill:#FFED00;" d="M388.796,287.712H274.912c-1.909,0-3.457-1.548-3.457-3.457v-33.156
				c0-1.91,1.548-3.457,3.457-3.457h113.884c1.909,0,3.457,1.548,3.457,3.457v33.156
				C392.253,286.164,390.706,287.712,388.796,287.712z"/>
			<g id="XMLID_41_">
				<text id="XMLID_40_" transform="matrix(1 0 0 1 280.3935 275.9815)" style="font-family:'Baloo'; font-size:24.6579px;">CAUTION</text>
			</g>
			<g id="XMLID_334_">
				<g id="XMLID_339_">
					<path id="XMLID_340_" style="fill:#9D9D9C;" d="M107.16,341.631c-0.052,0.002-0.105-0.005-0.157-0.023
						c-0.265-0.091-6.495-2.269-7.831-6.223c-0.511-1.513-0.241-3.073,0.804-4.639c2.612-3.915,1.242-6.31-0.208-8.846
						c-0.825-1.442-1.678-2.934-1.8-4.723c-0.184-2.721,0.742-3.932,1.814-5.335c0.879-1.15,1.874-2.452,2.476-4.963
						c0.332-1.383,0.487-2.657,0.625-3.781c0.363-2.967,0.649-5.311,3.91-6.634c0.222-0.09,0.473,0.017,0.562,0.237
						c0.09,0.221-0.016,0.472-0.237,0.562c-2.79,1.133-3.024,3.045-3.378,5.94c-0.14,1.147-0.299,2.446-0.642,3.878
						c-0.645,2.688-1.699,4.068-2.63,5.285c-1.007,1.317-1.801,2.357-1.639,4.754c0.108,1.591,0.875,2.933,1.687,4.353
						c1.517,2.652,3.085,5.394,0.177,9.752c-0.888,1.332-1.125,2.638-0.704,3.885c1.202,3.556,7.233,5.662,7.294,5.683
						c0.225,0.077,0.345,0.323,0.268,0.548C107.492,341.513,107.332,341.624,107.16,341.631z"/>
				</g>
				<g id="XMLID_335_">
					<path id="XMLID_336_" style="fill:#9D9D9C;" d="M106.695,374.68c-0.006,0-0.013,0-0.019,0c-0.238-0.001-0.43-0.195-0.429-0.433
						l0.278-77.386c0.001-0.146,0.075-0.282,0.198-0.361c0.123-0.079,0.278-0.091,0.411-0.03c3.103,1.406,3.205,3.849,3.334,6.942
						c0.048,1.142,0.102,2.437,0.313,3.831c0.385,2.552,1.266,3.935,2.044,5.156c0.949,1.49,1.768,2.776,1.352,5.471
						c-0.274,1.772-1.251,3.185-2.196,4.552c-1.662,2.403-3.231,4.672-0.963,8.796c1.148,2.086,1.413,4.052,0.789,5.843
						c-1.071,3.071-4.356,4.478-4.496,4.536c-0.028,0.012-0.056,0.02-0.085,0.026l-0.117,32.628
						C107.108,374.483,106.924,374.671,106.695,374.68z M107.384,297.572l-0.155,43.111c0.754-0.38,2.984-1.665,3.764-3.91
						c0.538-1.549,0.292-3.277-0.732-5.138c-2.525-4.591-0.728-7.189,1.01-9.702c0.93-1.346,1.809-2.617,2.053-4.194
						c0.367-2.374-0.337-3.478-1.227-4.876c-0.823-1.292-1.756-2.757-2.169-5.49c-0.217-1.44-0.272-2.759-0.321-3.923
						C109.491,300.687,109.411,298.784,107.384,297.572z"/>
				</g>
			</g>
			<g id="XMLID_154_">
				<g id="XMLID_217_">
					<g id="XMLID_240_">
						<path id="XMLID_241_" style="fill:#9D9D9C;" d="M338.747,355.932c-0.005,0-0.01,0-0.015,0
							c-0.118-0.004-0.228-0.06-0.301-0.153c-0.066-0.084-6.51-8.565,3.284-19.029c0.089-0.095,0.219-0.142,0.348-0.123
							c0.129,0.018,0.241,0.097,0.301,0.213c0.051,0.098,4.941,9.876-3.321,18.961C338.967,355.884,338.86,355.932,338.747,355.932z
							 M341.89,337.745c-7.605,8.49-4.163,15.426-3.1,17.135C345.169,347.514,342.729,339.816,341.89,337.745z"/>
					</g>
					<g id="XMLID_229_">
						<path id="XMLID_236_" style="fill:#9D9D9C;" d="M342.62,356.597c-2.353,0-3.925-0.633-3.964-0.649
							c-0.109-0.046-0.192-0.137-0.227-0.249c-0.035-0.113-0.019-0.235,0.044-0.334c6.577-10.372,17.3-8.241,17.408-8.218
							c0.127,0.027,0.233,0.114,0.285,0.234c0.051,0.12,0.041,0.257-0.027,0.367C351.607,355.125,346.207,356.597,342.62,356.597z
							 M339.423,355.372c1.932,0.608,9.461,2.175,15.709-7.527C352.913,347.586,344.832,347.28,339.423,355.372z"/>
					</g>
					<g id="XMLID_218_">
						<path id="XMLID_220_" style="fill:#9D9D9C;" d="M342.59,350.788c-0.103,0-0.202-0.04-0.278-0.112
							c-0.085-0.082-0.129-0.197-0.122-0.314c0.789-12.254,11.219-15.535,11.324-15.566c0.124-0.038,0.26-0.013,0.362,0.068
							c0.102,0.08,0.16,0.205,0.153,0.335c-0.716,14.315-11.292,15.576-11.398,15.588
							C342.617,350.787,342.603,350.788,342.59,350.788z M353.193,335.766c-2.073,0.841-9.307,4.451-10.165,14.146
							C345.015,349.515,352.371,347.277,353.193,335.766z"/>
					</g>
				</g>
				<g id="XMLID_176_">
					<g id="XMLID_211_">
						<path id="XMLID_214_" style="fill:#9D9D9C;" d="M327.843,349.18c-2.721,0-10.259-1.034-13.771-11.969
							c-0.04-0.124-0.017-0.259,0.061-0.363c0.078-0.104,0.218-0.172,0.332-0.159c0.108,0.003,10.844,0.475,14.699,11.912
							c0.038,0.112,0.024,0.234-0.037,0.335c-0.061,0.101-0.163,0.17-0.28,0.188C328.829,349.127,328.459,349.18,327.843,349.18z
							 M315.027,337.545c3.652,10.55,11.22,10.928,13.21,10.829C324.969,339.422,317.22,337.821,315.027,337.545z"/>
					</g>
					<g id="XMLID_179_">
						<path id="XMLID_204_" style="fill:#9D9D9C;" d="M328.857,349.097c-0.027,0-0.054-0.003-0.081-0.008
							c-0.115-0.024-0.215-0.097-0.271-0.201c-5.765-10.603,1.189-18.797,1.259-18.878c0.086-0.098,0.214-0.145,0.343-0.136
							c0.129,0.013,0.244,0.089,0.308,0.202c6.906,12.278-1.228,18.87-1.312,18.935
							C329.033,349.068,328.946,349.097,328.857,349.097z M330.011,331.004c-1.289,1.796-5.386,8.571-1.037,17.057
							C330.425,346.681,335.337,340.975,330.011,331.004z"/>
					</g>
					<g id="XMLID_178_">
						<path id="XMLID_201_" style="fill:#9D9D9C;" d="M326.205,343.373c-0.076,0-0.151-0.021-0.217-0.064
							c-10.148-6.533-7.983-17.059-7.96-17.164c0.028-0.127,0.115-0.233,0.235-0.283c0.121-0.049,0.257-0.039,0.368,0.029
							c11.953,7.454,7.983,17.142,7.941,17.239c-0.046,0.108-0.138,0.191-0.251,0.225
							C326.284,343.367,326.244,343.373,326.205,343.373z M318.721,326.899c-0.268,2.195-0.609,10.104,7.28,15.46
							C326.612,340.451,328.181,333.088,318.721,326.899z"/>
					</g>
				</g>
				<g id="XMLID_162_">
					<g id="XMLID_172_">
						<path id="XMLID_186_" style="fill:#9D9D9C;" d="M334.398,326.629c-0.038,0-0.075-0.005-0.112-0.016
							c-0.102-0.029-10.107-3.113-8.277-17.081c0.017-0.129,0.095-0.242,0.211-0.302c0.115-0.061,0.253-0.062,0.368-0.002
							c0.096,0.049,9.603,5.059,8.207,17.047c-0.014,0.117-0.078,0.222-0.176,0.287
							C334.553,326.606,334.476,326.629,334.398,326.629z M326.73,310.241c-1.202,11.099,5.485,14.669,7.323,15.432
							C334.919,316.184,328.596,311.428,326.73,310.241z"/>
					</g>
					<g id="XMLID_165_">
						<path id="XMLID_182_" style="fill:#9D9D9C;" d="M334.476,326.631c-0.086,0-0.171-0.028-0.24-0.08
							c-0.094-0.071-0.152-0.18-0.159-0.297c-0.687-12.05,9.098-16.49,9.197-16.534c0.119-0.052,0.256-0.044,0.368,0.024
							c0.112,0.067,0.183,0.185,0.192,0.314c1.004,14.051-9.166,16.54-9.269,16.563
							C334.536,326.628,334.506,326.631,334.476,326.631z M343.072,310.723c-1.933,1.074-8.529,5.451-8.219,14.982
							C336.755,325.076,343.632,322.013,343.072,310.723z"/>
					</g>
					<g id="XMLID_163_">
						<path id="XMLID_164_" style="fill:#9D9D9C;" d="M334.521,320.322c-0.019,0-0.038-0.001-0.057-0.004
							c-0.117-0.017-0.22-0.084-0.282-0.184c-6.388-10.239,0.063-18.834,0.13-18.919c0.079-0.103,0.198-0.169,0.334-0.156
							c0.13,0.006,0.249,0.074,0.32,0.183c7.628,11.843-0.099,18.909-0.178,18.979C334.713,320.287,334.618,320.322,334.521,320.322
							z M334.616,302.191c-1.18,1.87-4.864,8.877-0.016,17.088C335.966,317.816,340.528,311.827,334.616,302.191z"/>
					</g>
				</g>
				<g id="XMLID_157_">
					<path id="XMLID_161_" style="fill:#9D9D9C;" d="M334.421,379.91c-0.221,0-0.4-0.179-0.4-0.4v-54.166c0-0.221,0.179-0.4,0.4-0.4
						s0.4,0.179,0.4,0.4v54.166C334.822,379.731,334.643,379.91,334.421,379.91z"/>
				</g>
				<g id="XMLID_155_">
					<path id="XMLID_156_" style="fill:#9D9D9C;" d="M334.421,361.251c-0.016,0-0.033-0.001-0.049-0.003
						c-0.138-0.017-0.257-0.104-0.315-0.23l-5.811-12.622c-0.093-0.201-0.005-0.439,0.196-0.531c0.2-0.093,0.438-0.004,0.531,0.196
						l5.54,12.034l5.024-6.26c0.139-0.172,0.391-0.199,0.563-0.062c0.172,0.138,0.2,0.391,0.062,0.563l-5.429,6.765
						C334.657,361.197,334.542,361.251,334.421,361.251z"/>
				</g>
			</g>
		</g>
	</g>
	<g id="XMLID_138_">
		<defs>
			<rect id="XMLID_42_" y="324.944" width="500" height="162.694"/>
		</defs>
		<clipPath id="XMLID_00000116193667869779766610000010637110231450951557_">
			<use xlink:href="#XMLID_42_"  style="overflow:visible;"/>
		</clipPath>
		<g id="XMLID_159_" style="clip-path:url(#XMLID_00000116193667869779766610000010637110231450951557_);">
			
				<rect id="XMLID_174_" x="-25.901" y="417.39" transform="matrix(0.994 0.1093 -0.1093 0.994 49.0808 -25.8256)" style="fill:#FFCC00;" width="572.167" height="35.054"/>
			<polygon id="XMLID_137_" points="-5.561,423.337 -26.104,421.079 -7.115,387.901 13.428,390.159 			"/>
			<polygon id="XMLID_136_" points="35.442,427.844 14.899,425.586 33.888,392.408 54.431,394.667 			"/>
			<polygon id="XMLID_171_" points="76.445,432.352 55.902,430.093 74.892,396.916 95.434,399.174 			"/>
			<polygon id="XMLID_170_" points="117.448,436.859 96.906,434.601 115.894,401.423 136.437,403.681 			"/>
			<polygon id="XMLID_169_" points="158.451,441.366 137.908,439.108 156.897,405.93 177.44,408.189 			"/>
			<polygon id="XMLID_168_" points="199.454,445.874 178.911,443.615 197.9,410.438 218.443,412.696 			"/>
			<polygon id="XMLID_167_" points="240.457,450.381 219.914,448.123 238.903,414.945 259.446,417.203 			"/>
			<polygon id="XMLID_166_" points="281.46,454.888 260.917,452.63 279.906,419.452 300.449,421.711 			"/>
			<polygon id="XMLID_135_" points="322.464,459.396 301.921,457.137 320.909,423.96 341.452,426.218 			"/>
			<polygon id="XMLID_134_" points="363.466,463.903 342.924,461.645 361.913,428.467 382.455,430.725 			"/>
			<polygon id="XMLID_133_" points="404.469,468.41 383.926,466.152 402.915,432.974 423.458,435.233 			"/>
			<polygon id="XMLID_132_" points="445.473,472.918 424.93,470.659 443.918,437.482 464.461,439.74 			"/>
			<polygon id="XMLID_131_" points="486.475,477.425 465.932,475.167 484.921,441.989 505.464,444.247 			"/>
			<polygon id="XMLID_160_" points="527.479,481.932 506.935,479.674 525.924,446.496 546.467,448.755 			"/>
		</g>
		<g id="XMLID_50_" style="clip-path:url(#XMLID_00000116193667869779766610000010637110231450951557_);">
			<g id="XMLID_21_">
				
					<rect id="XMLID_158_" x="-29.335" y="405.393" transform="matrix(0.9962 -0.0875 0.0875 0.9962 -36.0107 24.0802)" style="fill:#FFED00;" width="572.167" height="35.054"/>
				<g id="XMLID_25_">
					
						<text id="XMLID_33_" transform="matrix(0.9962 -0.0875 0.0875 0.9962 90.3815 446.8447)" style="font-family:'Baloo'; font-size:30.569px;">UNDER CONSTRUCTION</text>
					<path id="XMLID_22_" d="M425.803,409.438c0,1.979-1.604,3.583-3.583,3.583c-1.979,0-3.583-1.604-3.583-3.583
						c0-1.979,1.604-3.583,3.583-3.583C424.198,405.855,425.803,407.459,425.803,409.438z"/>
					<path id="XMLID_31_" d="M83.09,438.5c0,1.979-1.604,3.583-3.583,3.583c-1.979,0-3.583-1.604-3.583-3.583
						s1.604-3.583,3.583-3.583C81.486,434.917,83.09,436.521,83.09,438.5z"/>
				</g>
			</g>
			<polygon id="XMLID_23_" points="3.929,427.526 0,463.059 14.345,461.8 18.658,426.232 			"/>
			<polygon id="XMLID_123_" points="40.596,424.213 36.667,459.747 51.012,458.487 55.325,422.92 			"/>
			<polygon id="XMLID_130_" points="442.95,389.11 439.021,424.644 453.366,423.384 457.679,387.816 			"/>
			<polygon id="XMLID_124_" points="479.617,385.797 475.688,421.331 490.033,420.071 494.345,384.504 			"/>
		</g>
	</g>
</g>
<g id="DESIGNED_BY_FREEPIK">
	<g id="XMLID_7126_">
		<g id="XMLID_7163_">
			<path id="XMLID_7188_" style="fill:#FFFFFF;" d="M186.001,486.13v-0.147c-0.2,0.229-0.397,0.415-0.592,0.558
				c-0.194,0.144-0.405,0.253-0.633,0.327c-0.227,0.076-0.475,0.112-0.744,0.112c-0.357,0-0.686-0.075-0.99-0.226
				c-0.303-0.151-0.566-0.367-0.787-0.646c-0.222-0.28-0.39-0.608-0.504-0.986c-0.114-0.378-0.172-0.787-0.172-1.226
				c0-0.93,0.227-1.656,0.682-2.176c0.454-0.519,1.052-0.779,1.793-0.779c0.429,0,0.79,0.074,1.085,0.22
				c0.294,0.147,0.581,0.374,0.861,0.679v-2.197c0-0.305,0.061-0.536,0.183-0.692c0.121-0.156,0.295-0.234,0.52-0.234
				c0.225,0,0.398,0.072,0.52,0.215c0.122,0.144,0.183,0.355,0.183,0.635v6.563c0,0.284-0.065,0.496-0.196,0.638
				c-0.131,0.141-0.299,0.212-0.507,0.212c-0.203,0-0.372-0.073-0.505-0.22C186.068,486.612,186.001,486.402,186.001,486.13z
				 M183.074,483.944c0,0.404,0.063,0.747,0.188,1.03c0.126,0.284,0.297,0.497,0.515,0.64c0.218,0.144,0.456,0.216,0.714,0.216
				c0.262,0,0.501-0.068,0.717-0.205c0.216-0.136,0.389-0.345,0.518-0.626c0.129-0.282,0.193-0.634,0.193-1.055
				c0-0.396-0.064-0.737-0.193-1.023c-0.129-0.285-0.303-0.503-0.523-0.654c-0.22-0.15-0.461-0.225-0.722-0.225
				c-0.272,0-0.516,0.077-0.73,0.232c-0.214,0.154-0.381,0.376-0.499,0.665C183.133,483.227,183.074,483.562,183.074,483.944z"/>
			<path id="XMLID_7185_" style="fill:#FFFFFF;" d="M192.564,484.321h-2.911c0.004,0.338,0.072,0.636,0.205,0.894
				c0.132,0.258,0.309,0.453,0.529,0.583c0.22,0.131,0.463,0.196,0.728,0.196c0.178,0,0.34-0.02,0.488-0.062
				c0.147-0.043,0.29-0.107,0.428-0.197c0.138-0.089,0.265-0.184,0.381-0.286c0.116-0.102,0.266-0.241,0.452-0.415
				c0.076-0.065,0.186-0.098,0.328-0.098c0.152,0,0.276,0.043,0.37,0.126c0.094,0.084,0.142,0.201,0.142,0.354
				c0,0.135-0.053,0.291-0.158,0.471c-0.106,0.18-0.265,0.353-0.477,0.518c-0.213,0.165-0.479,0.302-0.802,0.411
				c-0.321,0.109-0.691,0.164-1.109,0.164c-0.955,0-1.699-0.273-2.229-0.818c-0.531-0.545-0.796-1.285-0.796-2.218
				c0-0.44,0.065-0.848,0.196-1.224c0.131-0.377,0.322-0.699,0.572-0.968c0.251-0.269,0.56-0.475,0.927-0.619
				c0.367-0.143,0.774-0.215,1.221-0.215c0.581,0,1.08,0.122,1.496,0.368c0.417,0.245,0.729,0.562,0.935,0.951
				c0.207,0.389,0.311,0.786,0.311,1.188c0,0.375-0.107,0.617-0.321,0.729C193.255,484.265,192.953,484.321,192.564,484.321z
				 M189.653,483.475h2.699c-0.036-0.509-0.174-0.89-0.412-1.142c-0.238-0.253-0.551-0.379-0.94-0.379
				c-0.371,0-0.675,0.128-0.913,0.384C189.848,482.594,189.704,482.974,189.653,483.475z"/>
			<path id="XMLID_7183_" style="fill:#FFFFFF;" d="M199.345,485.034c0,0.411-0.1,0.763-0.3,1.055
				c-0.2,0.293-0.495,0.514-0.886,0.665c-0.39,0.151-0.866,0.226-1.425,0.226c-0.534,0-0.992-0.082-1.374-0.245
				c-0.381-0.163-0.663-0.368-0.845-0.613c-0.182-0.246-0.273-0.492-0.273-0.739c0-0.164,0.058-0.303,0.175-0.419
				c0.116-0.116,0.263-0.174,0.442-0.174c0.156,0,0.275,0.038,0.359,0.114c0.084,0.076,0.164,0.184,0.24,0.321
				c0.153,0.266,0.336,0.463,0.548,0.595c0.213,0.131,0.502,0.196,0.87,0.196c0.298,0,0.542-0.067,0.733-0.199
				c0.19-0.133,0.286-0.285,0.286-0.456c0-0.262-0.099-0.452-0.297-0.572c-0.198-0.12-0.524-0.235-0.979-0.344
				c-0.512-0.127-0.929-0.261-1.251-0.401c-0.322-0.139-0.579-0.324-0.771-0.553c-0.193-0.229-0.289-0.511-0.289-0.845
				c0-0.298,0.089-0.58,0.267-0.845c0.178-0.265,0.441-0.476,0.788-0.634c0.346-0.159,0.765-0.238,1.256-0.238
				c0.385,0,0.732,0.04,1.038,0.121c0.308,0.079,0.564,0.187,0.769,0.322c0.205,0.134,0.361,0.283,0.469,0.446
				c0.107,0.164,0.161,0.323,0.161,0.48c0,0.17-0.057,0.31-0.171,0.42c-0.114,0.108-0.277,0.164-0.488,0.164
				c-0.153,0-0.282-0.044-0.39-0.132c-0.107-0.087-0.23-0.217-0.368-0.392c-0.113-0.145-0.245-0.262-0.398-0.349
				c-0.153-0.087-0.36-0.13-0.622-0.13c-0.269,0-0.492,0.057-0.67,0.172c-0.178,0.114-0.267,0.256-0.267,0.427
				c0,0.157,0.065,0.285,0.196,0.384c0.131,0.1,0.307,0.183,0.529,0.248c0.222,0.065,0.526,0.145,0.916,0.239
				c0.461,0.113,0.838,0.248,1.131,0.404c0.292,0.156,0.514,0.341,0.666,0.554C199.27,484.519,199.345,484.761,199.345,485.034z"/>
			<path id="XMLID_7180_" style="fill:#FFFFFF;" d="M200.865,480.237c-0.207,0-0.384-0.064-0.531-0.191
				c-0.147-0.127-0.221-0.307-0.221-0.54c0-0.211,0.075-0.384,0.226-0.521c0.151-0.137,0.326-0.204,0.526-0.204
				c0.193,0,0.363,0.062,0.512,0.185c0.149,0.124,0.224,0.303,0.224,0.54c0,0.229-0.073,0.408-0.219,0.537
				C201.237,480.172,201.065,480.237,200.865,480.237z M201.601,481.774v4.301c0,0.298-0.071,0.524-0.213,0.676
				c-0.142,0.152-0.321,0.229-0.54,0.229c-0.218,0-0.395-0.078-0.532-0.234c-0.137-0.156-0.204-0.38-0.204-0.671v-4.258
				c0-0.294,0.068-0.516,0.204-0.665c0.136-0.149,0.313-0.224,0.532-0.224c0.218,0,0.398,0.075,0.54,0.224
				C201.53,481.302,201.601,481.509,201.601,481.774z"/>
			<path id="XMLID_7177_" style="fill:#FFFFFF;" d="M208.12,482.02v4.322c0,0.494-0.053,0.92-0.159,1.276
				c-0.105,0.355-0.274,0.65-0.507,0.883c-0.233,0.232-0.537,0.405-0.913,0.517c-0.376,0.113-0.844,0.169-1.404,0.169
				c-0.512,0-0.97-0.072-1.374-0.215c-0.403-0.144-0.714-0.329-0.932-0.556c-0.218-0.227-0.327-0.461-0.327-0.701
				c0-0.182,0.062-0.33,0.186-0.444c0.123-0.115,0.273-0.172,0.447-0.172c0.218,0,0.409,0.096,0.573,0.289
				c0.08,0.098,0.162,0.198,0.248,0.298c0.085,0.1,0.18,0.185,0.284,0.257c0.104,0.07,0.228,0.123,0.373,0.157
				c0.146,0.034,0.313,0.052,0.502,0.052c0.385,0,0.684-0.053,0.897-0.161c0.213-0.107,0.362-0.257,0.447-0.45
				c0.085-0.192,0.135-0.398,0.15-0.618s0.025-0.573,0.033-1.061c-0.229,0.321-0.493,0.564-0.793,0.731
				c-0.3,0.167-0.657,0.251-1.071,0.251c-0.498,0-0.933-0.127-1.306-0.382c-0.372-0.255-0.659-0.61-0.858-1.068
				c-0.2-0.459-0.3-0.987-0.3-1.586c0-0.447,0.06-0.851,0.182-1.21c0.122-0.36,0.296-0.664,0.521-0.911
				c0.225-0.247,0.485-0.433,0.779-0.559c0.294-0.125,0.618-0.188,0.971-0.188c0.421,0,0.787,0.081,1.096,0.242
				c0.309,0.163,0.596,0.416,0.861,0.761v-0.202c0-0.258,0.063-0.457,0.191-0.6c0.128-0.141,0.291-0.212,0.491-0.212
				c0.287,0,0.478,0.094,0.572,0.281C208.073,481.397,208.12,481.667,208.12,482.02z M203.808,483.906
				c0,0.603,0.131,1.059,0.395,1.368c0.263,0.309,0.604,0.464,1.022,0.464c0.247,0,0.48-0.067,0.7-0.199
				c0.22-0.133,0.399-0.333,0.537-0.6c0.138-0.267,0.207-0.591,0.207-0.973c0-0.607-0.133-1.079-0.401-1.417
				c-0.267-0.338-0.619-0.507-1.055-0.507c-0.425,0-0.766,0.162-1.022,0.485C203.936,482.85,203.808,483.31,203.808,483.906z"/>
			<path id="XMLID_7175_" style="fill:#FFFFFF;" d="M210.485,481.753v0.18c0.261-0.345,0.548-0.599,0.858-0.761
				c0.311-0.161,0.668-0.243,1.071-0.243c0.393,0,0.743,0.086,1.052,0.257c0.309,0.171,0.54,0.412,0.692,0.724
				c0.099,0.182,0.162,0.379,0.191,0.589c0.029,0.211,0.044,0.48,0.044,0.807v2.769c0,0.298-0.068,0.524-0.205,0.676
				c-0.136,0.152-0.313,0.229-0.531,0.229c-0.222,0-0.402-0.078-0.54-0.234c-0.138-0.156-0.207-0.38-0.207-0.671v-2.48
				c0-0.49-0.069-0.866-0.205-1.125c-0.137-0.259-0.408-0.39-0.815-0.39c-0.265,0-0.507,0.079-0.725,0.237
				c-0.218,0.159-0.378,0.376-0.48,0.652c-0.073,0.222-0.109,0.636-0.109,1.243v1.864c0,0.301-0.07,0.528-0.21,0.679
				c-0.14,0.151-0.321,0.226-0.542,0.226c-0.215,0-0.391-0.078-0.529-0.234c-0.138-0.156-0.207-0.38-0.207-0.671v-4.301
				c0-0.284,0.062-0.496,0.185-0.636c0.124-0.14,0.293-0.21,0.507-0.21c0.131,0,0.249,0.031,0.355,0.093
				c0.105,0.062,0.19,0.155,0.253,0.278C210.454,481.423,210.485,481.575,210.485,481.753z"/>
			<path id="XMLID_7172_" style="fill:#FFFFFF;" d="M219.539,484.321h-2.911c0.004,0.338,0.072,0.636,0.205,0.894
				c0.133,0.258,0.309,0.453,0.529,0.583c0.219,0.131,0.462,0.196,0.727,0.196c0.178,0,0.341-0.02,0.488-0.062
				c0.146-0.043,0.289-0.107,0.428-0.197c0.138-0.089,0.265-0.184,0.382-0.286c0.116-0.102,0.266-0.241,0.452-0.415
				c0.076-0.065,0.185-0.098,0.327-0.098c0.153,0,0.276,0.043,0.371,0.126c0.094,0.084,0.142,0.201,0.142,0.354
				c0,0.135-0.052,0.291-0.158,0.471c-0.106,0.18-0.265,0.353-0.477,0.518c-0.213,0.165-0.479,0.302-0.801,0.411
				c-0.322,0.109-0.692,0.164-1.109,0.164c-0.956,0-1.699-0.273-2.23-0.818c-0.53-0.545-0.796-1.285-0.796-2.218
				c0-0.44,0.065-0.848,0.196-1.224c0.131-0.377,0.322-0.699,0.573-0.968c0.251-0.269,0.56-0.475,0.926-0.619
				c0.367-0.143,0.774-0.215,1.221-0.215c0.581,0,1.079,0.122,1.496,0.368c0.417,0.245,0.728,0.562,0.936,0.951
				c0.207,0.389,0.311,0.786,0.311,1.188c0,0.375-0.107,0.617-0.322,0.729C220.23,484.265,219.928,484.321,219.539,484.321z
				 M216.628,483.475h2.698c-0.036-0.509-0.174-0.89-0.411-1.142c-0.238-0.253-0.551-0.379-0.94-0.379
				c-0.371,0-0.676,0.128-0.914,0.384C216.823,482.594,216.679,482.974,216.628,483.475z"/>
			<path id="XMLID_7169_" style="fill:#FFFFFF;" d="M225.605,486.13v-0.147c-0.2,0.229-0.397,0.415-0.591,0.558
				c-0.195,0.144-0.405,0.253-0.632,0.327c-0.227,0.076-0.475,0.112-0.744,0.112c-0.357,0-0.686-0.075-0.99-0.226
				c-0.303-0.151-0.566-0.367-0.788-0.646c-0.222-0.28-0.39-0.608-0.504-0.986c-0.115-0.378-0.172-0.787-0.172-1.226
				c0-0.93,0.227-1.656,0.681-2.176c0.454-0.519,1.052-0.779,1.794-0.779c0.429,0,0.791,0.074,1.085,0.22
				c0.294,0.147,0.582,0.374,0.861,0.679v-2.197c0-0.305,0.061-0.536,0.183-0.692c0.121-0.156,0.295-0.234,0.521-0.234
				c0.225,0,0.398,0.072,0.52,0.215c0.122,0.144,0.183,0.355,0.183,0.635v6.563c0,0.284-0.065,0.496-0.196,0.638
				c-0.131,0.141-0.3,0.212-0.507,0.212c-0.204,0-0.372-0.073-0.504-0.22C225.672,486.612,225.605,486.402,225.605,486.13z
				 M222.678,483.944c0,0.404,0.062,0.747,0.188,1.03c0.125,0.284,0.297,0.497,0.516,0.64c0.218,0.144,0.456,0.216,0.713,0.216
				c0.262,0,0.501-0.068,0.717-0.205c0.216-0.136,0.389-0.345,0.518-0.626c0.129-0.282,0.194-0.634,0.194-1.055
				c0-0.396-0.064-0.737-0.194-1.023c-0.129-0.285-0.303-0.503-0.523-0.654c-0.22-0.15-0.461-0.225-0.722-0.225
				c-0.272,0-0.516,0.077-0.73,0.232c-0.214,0.154-0.38,0.376-0.499,0.665C222.737,483.227,222.678,483.562,222.678,483.944z"/>
			<path id="XMLID_7166_" style="fill:#FFFFFF;" d="M231.688,479.567v2.273c0.28-0.29,0.565-0.513,0.856-0.668
				c0.291-0.154,0.651-0.231,1.079-0.231c0.494,0,0.927,0.117,1.3,0.351c0.372,0.236,0.661,0.575,0.867,1.02
				c0.205,0.444,0.308,0.973,0.308,1.584c0,0.451-0.057,0.863-0.172,1.24c-0.115,0.376-0.281,0.702-0.499,0.978
				c-0.218,0.276-0.482,0.49-0.793,0.641c-0.311,0.151-0.654,0.226-1.028,0.226c-0.229,0-0.445-0.027-0.646-0.082
				c-0.202-0.054-0.374-0.125-0.515-0.215c-0.141-0.089-0.262-0.181-0.362-0.275c-0.1-0.094-0.232-0.237-0.395-0.425v0.147
				c0,0.28-0.067,0.491-0.202,0.636c-0.134,0.143-0.305,0.215-0.512,0.215c-0.211,0-0.379-0.071-0.504-0.215
				c-0.126-0.144-0.188-0.356-0.188-0.636v-6.498c0-0.301,0.061-0.53,0.182-0.684c0.122-0.154,0.292-0.231,0.51-0.231
				c0.229,0,0.405,0.073,0.529,0.22C231.626,479.085,231.688,479.294,231.688,479.567z M231.759,483.988
				c0,0.592,0.135,1.047,0.406,1.365c0.271,0.318,0.626,0.478,1.066,0.478c0.374,0,0.697-0.163,0.967-0.488
				c0.271-0.326,0.406-0.791,0.406-1.398c0-0.392-0.056-0.731-0.169-1.014c-0.113-0.284-0.272-0.503-0.479-0.657
				c-0.207-0.154-0.449-0.232-0.725-0.232c-0.283,0-0.536,0.077-0.758,0.232c-0.222,0.154-0.396,0.378-0.523,0.67
				C231.823,483.236,231.759,483.584,231.759,483.988z"/>
			<path id="XMLID_7164_" style="fill:#FFFFFF;" d="M238.028,487.166l0.136-0.333l-1.832-4.612
				c-0.112-0.265-0.169-0.458-0.169-0.578c0-0.127,0.033-0.245,0.098-0.354c0.066-0.109,0.155-0.197,0.27-0.262
				c0.115-0.066,0.234-0.099,0.357-0.099c0.214,0,0.376,0.068,0.485,0.205c0.109,0.136,0.205,0.331,0.289,0.586l1.259,3.663
				l1.194-3.407c0.094-0.275,0.18-0.492,0.256-0.648c0.076-0.156,0.157-0.262,0.242-0.316c0.085-0.055,0.206-0.082,0.363-0.082
				c0.113,0,0.221,0.03,0.325,0.09c0.103,0.06,0.183,0.141,0.24,0.243c0.056,0.101,0.085,0.209,0.085,0.321
				c-0.015,0.069-0.038,0.167-0.071,0.295c-0.033,0.127-0.072,0.257-0.12,0.387l-1.941,5.081c-0.168,0.447-0.331,0.797-0.491,1.051
				c-0.16,0.254-0.371,0.451-0.635,0.586c-0.264,0.137-0.619,0.205-1.066,0.205c-0.436,0-0.763-0.047-0.981-0.141
				c-0.219-0.095-0.327-0.268-0.327-0.518c0-0.17,0.051-0.303,0.156-0.395c0.103-0.092,0.257-0.14,0.46-0.14
				c0.08,0,0.159,0.011,0.235,0.034c0.094,0.021,0.176,0.033,0.245,0.033c0.171,0,0.305-0.025,0.404-0.077
				c0.098-0.051,0.186-0.138,0.264-0.265C237.836,487.594,237.926,487.409,238.028,487.166z"/>
		</g>
		<g id="XMLID_7141_">
			<path id="XMLID_7162_" style="fill:#FFFFFF;" d="M259.586,481.058h0.355v-0.447c0-0.467,0.057-0.836,0.176-1.112
				c0.117-0.275,0.319-0.474,0.601-0.6c0.281-0.124,0.668-0.187,1.157-0.187c0.872,0,1.304,0.211,1.304,0.639
				c0,0.137-0.045,0.255-0.138,0.353c-0.089,0.097-0.197,0.147-0.32,0.147c-0.057,0-0.16-0.011-0.303-0.034
				c-0.136-0.019-0.259-0.032-0.358-0.032c-0.268,0-0.44,0.081-0.52,0.238c-0.073,0.158-0.112,0.384-0.112,0.68v0.354h0.363
				c0.569,0,0.85,0.17,0.85,0.514c0,0.24-0.073,0.396-0.225,0.462c-0.15,0.066-0.358,0.098-0.625,0.098h-0.363v3.944
				c0,0.293-0.069,0.517-0.212,0.67c-0.138,0.156-0.318,0.233-0.541,0.233c-0.211,0-0.385-0.077-0.527-0.233
				c-0.14-0.154-0.209-0.377-0.209-0.67v-3.944h-0.41c-0.223,0-0.392-0.048-0.513-0.15c-0.12-0.098-0.181-0.229-0.181-0.389
				C258.838,481.235,259.088,481.058,259.586,481.058"/>
			<path id="XMLID_7161_" style="fill:#FFFFFF;" d="M264.459,484.831v1.244c0,0.301-0.076,0.527-0.215,0.677
				c-0.142,0.152-0.321,0.227-0.538,0.227c-0.219,0-0.395-0.075-0.532-0.23c-0.136-0.151-0.207-0.377-0.207-0.674v-4.145
				c0-0.669,0.241-1.004,0.723-1.004c0.249,0,0.427,0.077,0.536,0.234c0.109,0.157,0.169,0.387,0.182,0.693
				c0.177-0.307,0.358-0.536,0.544-0.693c0.191-0.157,0.438-0.234,0.752-0.234c0.315,0,0.615,0.077,0.91,0.234
				c0.296,0.157,0.443,0.365,0.443,0.623c0,0.181-0.063,0.333-0.187,0.448c-0.126,0.12-0.261,0.179-0.405,0.179
				c-0.057,0-0.19-0.036-0.397-0.103c-0.21-0.065-0.395-0.099-0.553-0.099c-0.218,0-0.397,0.059-0.535,0.171
				c-0.139,0.118-0.247,0.285-0.324,0.509c-0.074,0.227-0.126,0.497-0.156,0.806C264.472,484.005,264.459,484.385,264.459,484.831"
				/>
			<path id="XMLID_7158_" style="fill:#FFFFFF;" d="M271.301,484.319h-2.912c0.005,0.337,0.071,0.637,0.203,0.895
				c0.135,0.256,0.31,0.451,0.531,0.583c0.221,0.131,0.461,0.195,0.728,0.195c0.178,0,0.34-0.019,0.488-0.064
				c0.146-0.04,0.29-0.106,0.428-0.196c0.139-0.087,0.264-0.183,0.381-0.287c0.116-0.1,0.268-0.239,0.453-0.413
				c0.077-0.065,0.186-0.1,0.326-0.1c0.154,0,0.276,0.043,0.373,0.127c0.095,0.085,0.14,0.201,0.14,0.354
				c0,0.135-0.051,0.292-0.154,0.47c-0.108,0.182-0.266,0.354-0.48,0.52c-0.215,0.164-0.482,0.303-0.802,0.41
				c-0.321,0.109-0.692,0.164-1.109,0.164c-0.959,0-1.701-0.271-2.231-0.816c-0.53-0.547-0.799-1.287-0.799-2.22
				c0-0.44,0.067-0.849,0.199-1.225c0.129-0.378,0.32-0.698,0.573-0.969c0.25-0.27,0.557-0.475,0.925-0.619
				c0.366-0.143,0.773-0.215,1.221-0.215c0.58,0,1.079,0.123,1.496,0.37c0.415,0.243,0.731,0.561,0.935,0.949
				c0.208,0.391,0.311,0.785,0.311,1.19c0,0.372-0.108,0.614-0.322,0.726C271.991,484.263,271.69,484.319,271.301,484.319
				 M268.388,483.473h2.698c-0.036-0.508-0.171-0.889-0.41-1.14c-0.24-0.254-0.55-0.379-0.942-0.379
				c-0.37,0-0.675,0.126-0.914,0.384C268.584,482.594,268.438,482.971,268.388,483.473"/>
			<path id="XMLID_7155_" style="fill:#FFFFFF;" d="M277.492,484.319h-2.912c0.003,0.337,0.072,0.637,0.204,0.895
				c0.133,0.256,0.309,0.451,0.529,0.583c0.22,0.131,0.462,0.195,0.73,0.195c0.177,0,0.34-0.019,0.485-0.064
				c0.148-0.04,0.29-0.106,0.43-0.196c0.139-0.087,0.264-0.183,0.381-0.287c0.114-0.1,0.266-0.239,0.452-0.413
				c0.077-0.065,0.187-0.1,0.326-0.1c0.154,0,0.277,0.043,0.373,0.127c0.095,0.085,0.138,0.201,0.138,0.354
				c0,0.135-0.05,0.292-0.157,0.47c-0.102,0.182-0.261,0.354-0.476,0.52c-0.212,0.164-0.482,0.303-0.801,0.41
				c-0.32,0.109-0.693,0.164-1.11,0.164c-0.957,0-1.698-0.271-2.231-0.816c-0.53-0.547-0.797-1.287-0.797-2.22
				c0-0.44,0.067-0.849,0.199-1.225c0.13-0.378,0.321-0.698,0.572-0.969c0.25-0.27,0.558-0.475,0.927-0.619
				c0.366-0.143,0.775-0.215,1.222-0.215c0.579,0,1.078,0.123,1.5,0.37c0.413,0.243,0.726,0.561,0.93,0.949
				c0.206,0.391,0.313,0.785,0.313,1.19c0,0.372-0.11,0.614-0.322,0.726C278.181,484.263,277.88,484.319,277.492,484.319
				 M274.58,483.473h2.698c-0.036-0.508-0.174-0.889-0.41-1.14c-0.242-0.254-0.552-0.379-0.943-0.379
				c-0.37,0-0.675,0.126-0.914,0.384C274.774,482.594,274.628,482.971,274.58,483.473"/>
			<path id="XMLID_7152_" style="fill:#FFFFFF;" d="M280.752,481.764v0.178c0.279-0.345,0.571-0.598,0.875-0.76
				c0.298-0.163,0.642-0.245,1.023-0.245c0.456,0,0.881,0.119,1.267,0.354c0.385,0.238,0.688,0.583,0.912,1.037
				c0.224,0.456,0.336,0.993,0.336,1.615c0,0.457-0.064,0.879-0.193,1.263c-0.128,0.383-0.308,0.704-0.533,0.964
				c-0.226,0.258-0.491,0.46-0.798,0.6c-0.311,0.138-0.638,0.208-0.992,0.208c-0.424,0-0.783-0.085-1.07-0.257
				c-0.289-0.167-0.564-0.421-0.827-0.749v2.234c0,0.652-0.239,0.981-0.714,0.981c-0.281,0-0.464-0.084-0.558-0.252
				c-0.087-0.172-0.134-0.415-0.134-0.741v-6.424c0-0.284,0.061-0.493,0.184-0.636c0.123-0.137,0.294-0.209,0.508-0.209
				c0.212,0,0.382,0.072,0.514,0.215C280.687,481.287,280.752,481.491,280.752,481.764 M283.669,483.926
				c0-0.393-0.061-0.731-0.18-1.012c-0.12-0.283-0.286-0.498-0.497-0.647c-0.211-0.151-0.449-0.228-0.707-0.228
				c-0.41,0-0.757,0.163-1.038,0.484c-0.283,0.325-0.424,0.801-0.424,1.431c0,0.589,0.14,1.052,0.422,1.381
				c0.28,0.329,0.623,0.493,1.04,0.493c0.246,0,0.477-0.072,0.687-0.214c0.213-0.145,0.382-0.36,0.507-0.647
				C283.606,484.68,283.669,484.332,283.669,483.926"/>
			<path id="XMLID_7149_" style="fill:#FFFFFF;" d="M286.663,480.234c-0.208,0-0.384-0.066-0.53-0.192
				c-0.149-0.128-0.223-0.306-0.223-0.538c0-0.211,0.075-0.385,0.228-0.522c0.15-0.135,0.325-0.204,0.525-0.204
				c0.195,0,0.365,0.061,0.513,0.183c0.149,0.126,0.224,0.307,0.224,0.543c0,0.229-0.073,0.408-0.217,0.537
				C287.037,480.168,286.865,480.234,286.663,480.234 M287.4,481.771v4.306c0,0.296-0.071,0.521-0.212,0.673
				c-0.143,0.155-0.322,0.23-0.54,0.23c-0.219,0-0.393-0.077-0.533-0.233c-0.134-0.159-0.204-0.382-0.204-0.669v-4.263
				c0-0.293,0.07-0.513,0.204-0.663c0.14-0.152,0.314-0.225,0.533-0.225c0.219,0,0.397,0.073,0.54,0.225
				C287.329,481.3,287.4,481.508,287.4,481.771"/>
			<path id="XMLID_7148_" style="fill:#FFFFFF;" d="M292.198,486.3l-1.311-2.161l-0.808,0.762v1.185c0,0.286-0.076,0.506-0.228,0.66
				c-0.147,0.156-0.325,0.233-0.52,0.233c-0.229,0-0.41-0.075-0.54-0.23c-0.13-0.151-0.197-0.377-0.197-0.674v-6.35
				c0-0.329,0.065-0.58,0.19-0.754c0.128-0.175,0.313-0.259,0.547-0.259c0.229,0,0.409,0.078,0.545,0.236
				c0.134,0.155,0.203,0.387,0.203,0.69v3.612l1.674-1.758c0.208-0.216,0.363-0.368,0.475-0.447c0.109-0.08,0.241-0.119,0.396-0.119
				c0.187,0,0.341,0.059,0.468,0.177c0.121,0.118,0.184,0.267,0.184,0.444c0,0.217-0.203,0.51-0.605,0.873l-0.79,0.725l1.526,2.401
				c0.111,0.18,0.194,0.312,0.243,0.405c0.048,0.091,0.074,0.183,0.074,0.265c0,0.237-0.066,0.422-0.195,0.56
				c-0.129,0.136-0.301,0.203-0.508,0.203c-0.182,0-0.324-0.047-0.421-0.147C292.5,486.733,292.364,486.555,292.198,486.3"/>
			<path id="XMLID_7147_" style="fill:#FFFFFF;" d="M295.432,486.979c-0.225,0-0.418-0.072-0.582-0.219
				c-0.163-0.143-0.246-0.348-0.246-0.611c0-0.221,0.079-0.413,0.235-0.571c0.158-0.16,0.349-0.241,0.578-0.241
				c0.228,0,0.422,0.08,0.587,0.237c0.16,0.158,0.242,0.351,0.242,0.575c0,0.259-0.082,0.464-0.242,0.608
				C295.84,486.907,295.65,486.979,295.432,486.979"/>
			<path id="XMLID_7146_" style="fill:#FFFFFF;" d="M302.835,485.137c0,0.184-0.055,0.383-0.167,0.594
				c-0.11,0.212-0.28,0.412-0.508,0.603c-0.227,0.191-0.512,0.346-0.858,0.461c-0.345,0.116-0.735,0.176-1.165,0.176
				c-0.922,0-1.641-0.27-2.157-0.804c-0.514-0.537-0.772-1.257-0.772-2.158c0-0.613,0.117-1.151,0.355-1.621
				c0.234-0.467,0.576-0.831,1.022-1.087c0.447-0.257,0.985-0.384,1.603-0.384c0.387,0,0.739,0.056,1.063,0.169
				c0.322,0.112,0.592,0.259,0.818,0.436c0.222,0.18,0.393,0.369,0.511,0.569c0.119,0.202,0.177,0.391,0.177,0.567
				c0,0.177-0.065,0.328-0.197,0.452c-0.135,0.123-0.296,0.186-0.481,0.186c-0.126,0-0.228-0.033-0.311-0.095
				c-0.082-0.064-0.175-0.166-0.275-0.311c-0.182-0.275-0.371-0.483-0.572-0.619c-0.197-0.139-0.448-0.208-0.754-0.208
				c-0.437,0-0.794,0.171-1.064,0.515c-0.268,0.342-0.404,0.815-0.404,1.409c0,0.28,0.036,0.539,0.105,0.773
				c0.067,0.234,0.167,0.434,0.299,0.599c0.132,0.165,0.289,0.29,0.474,0.376c0.186,0.088,0.391,0.129,0.61,0.129
				c0.299,0,0.555-0.069,0.767-0.207c0.216-0.139,0.403-0.349,0.566-0.633c0.091-0.167,0.188-0.297,0.292-0.392
				c0.105-0.094,0.235-0.143,0.388-0.143c0.182,0,0.333,0.071,0.451,0.208C302.774,484.833,302.835,484.982,302.835,485.137"/>
			<path id="XMLID_7143_" style="fill:#FFFFFF;" d="M309.258,483.954c0,0.442-0.07,0.852-0.204,1.228
				c-0.142,0.374-0.34,0.696-0.603,0.963c-0.261,0.269-0.575,0.475-0.936,0.62c-0.367,0.142-0.775,0.215-1.228,0.215
				c-0.451,0-0.857-0.073-1.217-0.22c-0.358-0.143-0.672-0.353-0.933-0.621c-0.265-0.274-0.464-0.594-0.604-0.962
				c-0.132-0.369-0.201-0.777-0.201-1.223c0-0.451,0.071-0.864,0.206-1.239c0.139-0.375,0.338-0.696,0.596-0.96
				c0.259-0.265,0.57-0.469,0.936-0.614c0.369-0.143,0.775-0.215,1.217-0.215c0.45,0,0.86,0.072,1.228,0.219
				c0.366,0.144,0.679,0.353,0.943,0.619c0.263,0.272,0.461,0.591,0.597,0.96C309.189,483.098,309.258,483.505,309.258,483.954
				 M307.764,483.954c0-0.608-0.135-1.079-0.401-1.417c-0.266-0.342-0.625-0.509-1.076-0.509c-0.292,0-0.548,0.076-0.771,0.226
				c-0.222,0.15-0.391,0.373-0.511,0.668c-0.12,0.295-0.181,0.639-0.181,1.032c0,0.39,0.059,0.728,0.178,1.018
				c0.119,0.293,0.288,0.515,0.508,0.669c0.221,0.153,0.479,0.232,0.776,0.232c0.45,0,0.81-0.17,1.076-0.512
				C307.629,485.022,307.764,484.552,307.764,483.954"/>
			<path id="XMLID_7142_" style="fill:#FFFFFF;" d="M314.935,484.063v1.978c0,0.314-0.069,0.546-0.212,0.704
				c-0.144,0.156-0.328,0.234-0.561,0.234c-0.225,0-0.41-0.078-0.546-0.234c-0.142-0.159-0.214-0.391-0.214-0.704v-2.371
				c0-0.375-0.012-0.667-0.036-0.875c-0.026-0.203-0.096-0.376-0.208-0.507c-0.113-0.135-0.292-0.202-0.534-0.202
				c-0.488,0-0.808,0.167-0.962,0.506c-0.154,0.331-0.233,0.811-0.233,1.439v2.01c0,0.309-0.07,0.543-0.207,0.702
				c-0.143,0.157-0.326,0.237-0.554,0.237c-0.227,0-0.411-0.08-0.555-0.237c-0.145-0.159-0.216-0.393-0.216-0.702v-4.258
				c0-0.281,0.064-0.494,0.192-0.638c0.132-0.147,0.302-0.219,0.511-0.219c0.204,0,0.374,0.071,0.512,0.204
				c0.136,0.137,0.203,0.325,0.203,0.565v0.141c0.26-0.307,0.536-0.535,0.829-0.678c0.297-0.149,0.621-0.221,0.983-0.221
				c0.374,0,0.695,0.075,0.963,0.224c0.27,0.15,0.49,0.376,0.666,0.675c0.252-0.303,0.522-0.53,0.809-0.678
				c0.287-0.147,0.604-0.221,0.954-0.221c0.405,0,0.758,0.082,1.053,0.24c0.293,0.16,0.512,0.39,0.659,0.686
				c0.127,0.271,0.189,0.694,0.189,1.272v2.906c0,0.314-0.07,0.546-0.211,0.704c-0.141,0.156-0.33,0.234-0.562,0.234
				c-0.227,0-0.41-0.08-0.554-0.237c-0.143-0.159-0.216-0.393-0.216-0.702v-2.503c0-0.321-0.014-0.576-0.04-0.768
				c-0.027-0.193-0.101-0.356-0.22-0.486c-0.122-0.131-0.304-0.197-0.547-0.197c-0.196,0-0.382,0.061-0.559,0.177
				c-0.176,0.114-0.314,0.273-0.414,0.466C314.992,482.982,314.935,483.426,314.935,484.063"/>
		</g>
		<g id="XMLID_7127_">
			<path id="XMLID_7140_" style="fill:#FFFFFF;" d="M245.658,483.594c-0.001-0.003-0.001-0.006-0.001-0.01
				C245.657,483.588,245.657,483.591,245.658,483.594z"/>
			<path id="XMLID_7139_" style="fill:#FFFFFF;" d="M245.733,484.069c0.001,0,0.001,0,0.002,0c-0.029-0.136-0.051-0.27-0.068-0.403
				C245.684,483.801,245.706,483.936,245.733,484.069z"/>
			<path id="XMLID_7138_" style="fill:#FFFFFF;" d="M246.226,485.451c-0.003-0.006-0.006-0.012-0.01-0.019
				C246.22,485.438,246.223,485.445,246.226,485.451z"/>
			<path id="XMLID_7137_" style="fill:#FFFFFF;" d="M246.179,485.359c-0.013-0.025-0.025-0.052-0.037-0.077
				C246.154,485.309,246.166,485.333,246.179,485.359z"/>
			<path id="XMLID_7136_" style="fill:#FFFFFF;" d="M245.872,484.602c0.073,0.23,0.161,0.452,0.262,0.665
				c-0.103-0.217-0.189-0.44-0.26-0.665H245.872z"/>
			<path id="XMLID_7135_" style="fill:#FFFFFF;" d="M251.419,477.891c0.288,0,0.5,0.023,0.743,0.064l0.069-0.438
				c0,0-0.672-0.207-1.556-0.135l-0.07-0.238c0.275-0.058,0.481-0.302,0.481-0.594c0-0.334-0.272-0.605-0.607-0.605
				c-0.335,0-0.606,0.271-0.606,0.605c0,0.292,0.206,0.536,0.48,0.594l0.077,0.266c-0.938,0.129-1.685,0.495-1.685,0.495
				l0.132,0.405c0.568-0.189,1.06-0.304,1.506-0.352C250.822,477.911,251.151,477.891,251.419,477.891z"/>
			<path id="XMLID_7134_" style="fill:#FFFFFF;" d="M246.215,480.105l0.003-0.004c0.022-0.029,0.043-0.056,0.065-0.082l-0.18-0.129
				l-0.28-0.204c-0.016,0.022-0.456,0.427-0.804,1.175c-0.015-0.023-0.032-0.047-0.051-0.068c-0.104-0.114-0.25-0.172-0.435-0.169
				c-0.002,0-0.005,0-0.008,0c-0.115,0-0.193-0.038-0.245-0.085c0.051-0.065,0.082-0.147,0.082-0.237
				c0-0.211-0.172-0.384-0.384-0.384c-0.212,0-0.384,0.173-0.384,0.384c0,0.212,0.172,0.384,0.384,0.384
				c0.033,0,0.065-0.005,0.096-0.012c0.094,0.105,0.244,0.196,0.464,0.192c0.113-0.001,0.196,0.028,0.251,0.089
				c0.064,0.069,0.085,0.17,0.092,0.245c-0.001,0.001-0.001,0.003-0.002,0.003c-0.25,0.683-0.178,1.532-0.178,1.532l0.607,0.024
				c0.012-0.309,0.057-0.851,0.213-1.28C245.821,480.647,246.199,480.127,246.215,480.105z"/>
			<path id="XMLID_7133_" style="fill:#FFFFFF;" d="M256.699,478.398c-0.211,0-0.384,0.171-0.384,0.384
				c0,0.033,0.005,0.065,0.014,0.095c-0.105,0.095-0.197,0.245-0.193,0.465c0.002,0.113-0.027,0.195-0.089,0.251
				c-0.049,0.043-0.11,0.066-0.17,0.081c-0.452-0.633-1.008-1.019-1.008-1.019l-0.436,0.467c0.329,0.299,0.665,0.674,0.992,1.142
				c0.226,0.323,0.459,0.74,0.652,1.156l0.588-0.279c0,0-0.268-0.663-0.646-1.258c0.066-0.023,0.132-0.059,0.19-0.11
				c0.115-0.104,0.171-0.251,0.168-0.435c-0.001-0.119,0.038-0.2,0.085-0.253c0.065,0.05,0.147,0.082,0.236,0.082
				c0.213,0,0.385-0.172,0.385-0.384C257.083,478.569,256.912,478.398,256.699,478.398z"/>
			<path id="XMLID_7132_" style="fill:#FFFFFF;" d="M255.174,483.679c-0.809,0.394-2.14,0.915-3.892,1.159
				c-0.688,0.095-1.354,0.13-1.968,0.13c-0.798,0-1.503-0.059-2.045-0.128c-0.618-0.078-1.1-0.173-1.396-0.24
				c0.071,0.225,0.157,0.448,0.26,0.665c0.002,0.006,0.004,0.012,0.007,0.016c0.012,0.025,0.025,0.052,0.037,0.077
				c0.012,0.025,0.025,0.05,0.037,0.073c0.004,0.007,0.007,0.013,0.01,0.019c0.174,0.327,0.383,0.628,0.62,0.889
				c0.826,0.904,1.668,1.047,1.676,1.048l0.013,0.002l0.012,0.004c0.008,0.003,0.754,0.244,1.889,0.244
				c1.117,0,2.212-0.225,3.257-0.67c0.773-0.396,1.505-0.996,1.868-1.532c0.28-0.415,0.483-0.857,0.603-1.317
				c0.064-0.244,0.114-0.636,0.085-1.047C256.021,483.224,255.661,483.442,255.174,483.679z"/>
			<path id="XMLID_7128_" style="fill:#FFFFFF;" d="M246.474,480.297c-0.024,0.034-0.374,0.531-0.652,1.293
				c-0.208,0.571-0.198,1.402-0.198,1.412v0.002c0,0.195,0.011,0.388,0.033,0.58c0,0.005,0,0.007,0.001,0.01
				c0.002,0.025,0.006,0.048,0.009,0.073c0.017,0.133,0.04,0.267,0.068,0.403c0.402,0.102,2.8,0.661,5.48,0.288
				c1.68-0.234,2.955-0.73,3.73-1.106c0.643-0.312,1.057-0.595,1.217-0.711c-0.159-0.59-0.598-1.516-1-2.093
				c-1.151-1.645-2.392-2.066-3.029-2.171c-0.243-0.04-0.438-0.063-0.714-0.063c-0.257,0-0.575,0.021-1.001,0.065
				c-0.426,0.044-0.902,0.156-1.453,0.342c-0.773,0.259-1.473,0.665-2.024,1.175l-0.019,0.017
				C246.841,479.889,246.67,480.047,246.474,480.297z M253.516,479.914c0.551,0,1,0.448,1,1.001c0,0.552-0.449,1.001-1,1.001
				c-0.552,0-1-0.449-1-1.001C252.516,480.362,252.964,479.914,253.516,479.914z M248.786,479.874c0.893,0,1.617,0.724,1.617,1.617
				c0,0.893-0.723,1.615-1.617,1.615c-0.892,0-1.616-0.723-1.616-1.615C247.17,480.599,247.894,479.874,248.786,479.874z"/>
		</g>
	</g>
</g>
</svg>
